<svg xmlns="http://www.w3.org/2000/svg" xmlns:xlink="http://www.w3.org/1999/xlink" viewBox="0 0 18 22.5" version="1.1" x="0px" y="0px" transform="rotate(45)">
  <g stroke="none" stroke-width="1" fill="none" fill-rule="evenodd">
    <path d="M9.24264069,6.41438508 C8.8521164,6.80490937 8.21895142,6.80490937 7.82842712,6.41438508 C7.43790283,6.02386078 7.43790283,5.39069581 7.82842712,5.00017151 L10.6570258,2.17157288 C12.2191229,0.609475708 14.7517828,0.609475708 16.31388,2.17157288 C17.8759772,3.73367004 17.8759772,6.26632996 16.31388,7.82842712 L13.4854529,10.6568542 C13.0949286,11.0473785 12.4617636,11.0473785 12.0712393,10.6568542 C11.680715,10.26633 11.680715,9.63316498 12.0712393,9.24264069 L14.8996664,6.41421356 C15.680715,5.63316498 15.680715,4.36683502 14.8996664,3.58578644 C14.1186179,2.80473785 12.8522879,2.80473785 12.0712393,3.58578644 L9.24264069,6.41438508 Z M9.2428122,12.0710678 C9.63333649,11.6805435 10.2665015,11.6805435 10.6570258,12.0710678 C11.0475501,12.4615921 11.0475501,13.0947571 10.6570258,13.4852814 L7.82842712,16.31388 C6.26632996,17.8759772 3.73367004,17.8759772 2.17157288,16.31388 C0.609475708,14.7517828 0.609475708,12.2191229 2.17157288,10.6570258 L5,7.82859864 C5.39052429,7.43807435 6.02368927,7.43807435 6.41421356,7.82859864 C6.80473785,8.21912293 6.80473785,8.85228791 6.41421356,9.2428122 L3.58578644,12.0712393 C2.80473785,12.8522879 2.80473785,14.1186179 3.58578644,14.8996664 C4.36683502,15.680715 5.63316498,15.680715 6.41421356,14.8996664 L9.2428122,12.0710678 Z M12.0712393,6.41421356 C12.4617636,6.80473785 12.4617636,7.43790283 12.0712393,7.82842712 L7.82859864,12.0710678 C7.43807435,12.4615921 6.80490937,12.4615921 6.41438508,12.0710678 C6.02386078,11.6805435 6.02386078,11.0473785 6.41438508,10.6568542 L10.6570258,6.41421356 C11.0475501,6.02368927 11.680715,6.02368927 12.0712393,6.41421356 Z" fill="#ffffff" fill-rule="nonzero"/>
  </g>
</svg>
